<?xml version="1.0" encoding="UTF-8"?>
<!DOCTYPE svg PUBLIC "-//W3C//DTD SVG 1.1//EN" "http://www.w3.org/Graphics/SVG/1.1/DTD/svg11.dtd">
<svg xmlns="http://www.w3.org/2000/svg" version="1.1" width="1600px" height="900px" style="shape-rendering:geometricPrecision; text-rendering:geometricPrecision; image-rendering:optimizeQuality; fill-rule:evenodd; clip-rule:evenodd" xmlns:xlink="http://www.w3.org/1999/xlink">
<g><path style="opacity:1" fill="#fefefe" d="M -0.5,-0.5 C 532.833,-0.5 1066.17,-0.5 1599.5,-0.5C 1599.5,299.5 1599.5,599.5 1599.5,899.5C 1066.17,899.5 532.833,899.5 -0.5,899.5C -0.5,599.5 -0.5,299.5 -0.5,-0.5 Z"/></g>
<g><path style="opacity:1" fill="#2b2e5a" d="M 779.5,89.5 C 779.67,94.8591 780.17,100.192 781,105.5C 784.049,118.264 786.883,130.93 789.5,143.5C 792.889,165.035 796.889,186.369 801.5,207.5C 804.462,225.233 807.795,242.9 811.5,260.5C 812.297,264.798 812.63,269.132 812.5,273.5C 811.87,275.75 810.87,277.75 809.5,279.5C 808.542,279.953 807.708,280.619 807,281.5C 803.918,288.322 801.418,295.322 799.5,302.5C 797.409,308.338 795.076,314.005 792.5,319.5C 790.526,321.428 789.026,323.761 788,326.5C 784.864,333.703 782.031,341.036 779.5,348.5C 779.179,350.048 778.179,350.715 776.5,350.5C 776.5,349.833 776.833,349.5 777.5,349.5C 778.097,349.265 778.43,348.765 778.5,348C 777.164,345.322 776.33,342.489 776,339.5C 773.397,333.299 770.564,327.299 767.5,321.5C 766.33,316.157 764.663,310.99 762.5,306C 755.856,294.068 751.189,281.401 748.5,268C 752.918,242.571 756.918,217.071 760.5,191.5C 762.265,187.813 763.432,183.813 764,179.5C 765.983,168.262 767.317,156.928 768,145.5C 772.421,132.24 775.088,118.573 776,104.5C 777.299,101.638 778.132,98.638 778.5,95.5C 778.592,93.6573 778.259,92.9907 777.5,93.5C 776.662,93.1583 776.328,92.4916 776.5,91.5C 778.13,89.9739 778.963,87.9739 779,85.5C 779.49,86.7932 779.657,88.1266 779.5,89.5 Z"/></g>
<g><path style="opacity:1" fill="#898aa2" d="M 779.5,89.5 C 784.11,107.145 787.443,125.145 789.5,143.5C 786.883,130.93 784.049,118.264 781,105.5C 780.17,100.192 779.67,94.8591 779.5,89.5 Z"/></g>
<g><path style="opacity:1" fill="#202022" d="M 776.5,91.5 C 776.328,92.4916 776.662,93.1583 777.5,93.5C 775.001,106.816 772.501,120.15 770,133.5C 769.329,134.252 768.496,134.586 767.5,134.5C 770.015,119.108 772.848,103.774 776,88.5C 776.483,89.448 776.649,90.448 776.5,91.5 Z"/></g>
<g><path style="opacity:1" fill="#191928" d="M 760.5,191.5 C 762.532,181.652 763.532,171.652 763.5,161.5C 764.08,152.354 765.414,143.354 767.5,134.5C 768.496,134.586 769.329,134.252 770,133.5C 772.501,120.15 775.001,106.816 777.5,93.5C 778.259,92.9907 778.592,93.6573 778.5,95.5C 778.132,98.638 777.299,101.638 776,104.5C 775.088,118.573 772.421,132.24 768,145.5C 767.317,156.928 765.983,168.262 764,179.5C 763.432,183.813 762.265,187.813 760.5,191.5 Z"/></g>
<g><path style="opacity:1" fill="#8a8aa2" d="M 789.5,143.5 C 791.417,146.804 792.584,150.471 793,154.5C 796.576,172.058 799.41,189.724 801.5,207.5C 796.889,186.369 792.889,165.035 789.5,143.5 Z"/></g>
<g><path style="opacity:1" fill="#888caa" d="M 841.5,204.5 C 840.833,204.167 840.167,203.833 839.5,203.5C 839.174,200.689 838.341,198.022 837,195.5C 836.768,196.737 836.268,197.737 835.5,198.5C 835.5,197.833 835.5,197.167 835.5,196.5C 835.338,194.473 835.505,192.473 836,190.5C 838.543,194.977 840.377,199.644 841.5,204.5 Z"/></g>
<g><path style="opacity:1" fill="#222533" d="M 722.5,194.5 C 720.733,196.792 719.733,199.458 719.5,202.5C 715.998,207.755 712.498,213.088 709,218.5C 708.506,220.134 708.34,221.801 708.5,223.5C 707.5,223.5 706.5,223.5 705.5,223.5C 704.495,226.721 703.661,230.054 703,233.5C 700.908,235.475 699.075,237.475 697.5,239.5C 704.972,223.219 712.472,206.886 720,190.5C 720.317,192.301 720.984,192.634 722,191.5C 722.483,192.448 722.649,193.448 722.5,194.5 Z"/></g>
<g><path style="opacity:1" fill="#a0a5c2" d="M 843.5,207.5 C 845.823,210.135 847.656,213.135 849,216.5C 849.49,217.793 849.657,219.127 849.5,220.5C 846.727,216.615 844.727,212.282 843.5,207.5 Z"/></g>
<g><path style="opacity:1" fill="#737aa3" d="M 722.5,194.5 C 721.283,204.378 719.617,214.045 717.5,223.5C 717.791,216.462 718.458,209.462 719.5,202.5C 719.733,199.458 720.733,196.792 722.5,194.5 Z"/></g>
<g><path style="opacity:1" fill="#898aa3" d="M 801.5,207.5 C 802.927,209.148 803.76,211.148 804,213.5C 807.628,231.974 811.128,250.474 814.5,269C 814.101,270.728 813.434,272.228 812.5,273.5C 812.63,269.132 812.297,264.798 811.5,260.5C 807.795,242.9 804.462,225.233 801.5,207.5 Z"/></g>
<g><path style="opacity:1" fill="#979cbe" d="M 849.5,220.5 C 852.868,224.569 855.201,229.236 856.5,234.5C 853.126,230.419 850.793,225.753 849.5,220.5 Z"/></g>
<g><path style="opacity:1" fill="#20264c" d="M 839.5,203.5 C 839.917,209.004 841.084,214.338 843,219.5C 843.453,226.177 843.953,232.844 844.5,239.5C 841.519,225.876 838.519,212.209 835.5,198.5C 836.268,197.737 836.768,196.737 837,195.5C 838.341,198.022 839.174,200.689 839.5,203.5 Z"/></g>
<g><path style="opacity:1" fill="#6e759f" d="M 717.5,223.5 C 715.467,240.411 712.801,257.078 709.5,273.5C 710.896,256.462 713.563,239.796 717.5,223.5 Z"/></g>
<g><path style="opacity:1" fill="#9197b5" d="M 856.5,234.5 C 858.213,235.635 858.88,237.302 858.5,239.5C 856.787,238.365 856.12,236.698 856.5,234.5 Z"/></g>
<g><path style="opacity:1" fill="#7d83a8" d="M 869.5,246.5 C 873.542,247.851 876.875,250.185 879.5,253.5C 875.458,252.149 872.125,249.815 869.5,246.5 Z"/></g>
<g><path style="opacity:1" fill="#2c3978" d="M 719.5,202.5 C 718.458,209.462 717.791,216.462 717.5,223.5C 713.563,239.796 710.896,256.462 709.5,273.5C 694.211,283.122 681.545,295.455 671.5,310.5C 669.26,311.568 667.426,313.234 666,315.5C 658.72,327.723 653.387,340.723 650,354.5C 649.501,358.152 649.335,361.818 649.5,365.5C 625.192,378.317 601.858,392.651 579.5,408.5C 579.343,407.127 579.51,405.793 580,404.5C 583.298,400.2 586.965,396.2 591,392.5C 591.483,391.552 591.649,390.552 591.5,389.5C 592.922,389.291 594.255,388.791 595.5,388C 597.642,384.193 600.475,381.026 604,378.5C 604.415,376.709 605.415,375.376 607,374.5C 607.49,373.207 607.657,371.873 607.5,370.5C 609.722,370.822 611.556,370.155 613,368.5C 616.431,358.775 618.931,348.775 620.5,338.5C 624.628,328.693 628.461,318.693 632,308.5C 639.84,297.849 647.007,286.849 653.5,275.5C 658.558,273.612 662.225,270.112 664.5,265C 669.439,262.062 673.772,258.396 677.5,254C 681.645,253.094 684.978,250.927 687.5,247.5C 691.103,246.892 693.436,244.892 694.5,241.5C 695.5,240.833 696.5,240.167 697.5,239.5C 699.075,237.475 700.908,235.475 703,233.5C 703.661,230.054 704.495,226.721 705.5,223.5C 706.5,223.5 707.5,223.5 708.5,223.5C 708.34,221.801 708.506,220.134 709,218.5C 712.498,213.088 715.998,207.755 719.5,202.5 Z"/></g>
<g><path style="opacity:1" fill="#2d3a78" d="M 839.5,203.5 C 840.167,203.833 840.833,204.167 841.5,204.5C 842.167,205.5 842.833,206.5 843.5,207.5C 844.727,212.282 846.727,216.615 849.5,220.5C 850.793,225.753 853.126,230.419 856.5,234.5C 856.12,236.698 856.787,238.365 858.5,239.5C 862.457,241.473 866.124,243.806 869.5,246.5C 872.125,249.815 875.458,252.149 879.5,253.5C 884.204,258.53 889.537,262.864 895.5,266.5C 897.23,270.045 899.896,272.712 903.5,274.5C 906.243,276.239 908.243,278.573 909.5,281.5C 914.145,288.485 918.812,295.485 923.5,302.5C 927.274,310.385 931.274,318.052 935.5,325.5C 935.733,328.542 936.733,331.208 938.5,333.5C 940.526,343.84 942.693,354.174 945,364.5C 945.759,366.063 946.926,367.063 948.5,367.5C 949.247,370.362 950.914,372.362 953.5,373.5C 956.693,379.597 961.026,384.597 966.5,388.5C 970.628,391.29 973.628,394.957 975.5,399.5C 978.137,403.248 981.137,406.748 984.5,410C 983.423,410.47 982.423,410.303 981.5,409.5C 977.712,406.317 973.712,403.317 969.5,400.5C 967.922,399.702 966.256,399.202 964.5,399C 963.001,395.57 960.334,393.57 956.5,393C 951.539,388.352 945.872,385.019 939.5,383C 936.131,380.316 932.464,378.149 928.5,376.5C 927.614,375.675 927.281,374.675 927.5,373.5C 926.448,373.649 925.448,373.483 924.5,373C 920.818,369.451 916.485,367.618 911.5,367.5C 907.733,355.014 904.233,342.348 901,329.5C 899.167,326.5 897.333,323.5 895.5,320.5C 894.675,319.614 893.675,319.281 892.5,319.5C 892.657,318.127 892.49,316.793 892,315.5C 889.394,310.565 886.394,305.898 883,301.5C 877.616,297.281 872.783,292.614 868.5,287.5C 868.714,285.856 868.38,284.356 867.5,283C 865.567,282.749 863.734,282.249 862,281.5C 861.674,278.668 862.174,276.001 863.5,273.5C 861.61,273.703 860.11,273.037 859,271.5C 855.969,250.408 854.469,250.408 854.5,271.5C 853.5,271.5 852.5,271.5 851.5,271.5C 849.534,260.64 847.201,249.973 844.5,239.5C 843.953,232.844 843.453,226.177 843,219.5C 841.084,214.338 839.917,209.004 839.5,203.5 Z"/></g>
<g><path style="opacity:1" fill="#273367" d="M 844.5,239.5 C 847.201,249.973 849.534,260.64 851.5,271.5C 852.5,271.5 853.5,271.5 854.5,271.5C 854.469,250.408 855.969,250.408 859,271.5C 860.11,273.037 861.61,273.703 863.5,273.5C 862.174,276.001 861.674,278.668 862,281.5C 863.734,282.249 865.567,282.749 867.5,283C 868.38,284.356 868.714,285.856 868.5,287.5C 861.836,283.168 855.169,278.834 848.5,274.5C 847.372,262.783 846.039,251.117 844.5,239.5 Z"/></g>
<g><path style="opacity:1" fill="#7b82a6" d="M 879.5,253.5 C 883.456,255.485 887.122,257.985 890.5,261C 892.373,262.704 894.04,264.537 895.5,266.5C 889.537,262.864 884.204,258.53 879.5,253.5 Z"/></g>
<g><path style="opacity:1" fill="#2f365b" d="M 694.5,241.5 C 693.436,244.892 691.103,246.892 687.5,247.5C 684.978,250.927 681.645,253.094 677.5,254C 673.772,258.396 669.439,262.062 664.5,265C 662.225,270.112 658.558,273.612 653.5,275.5C 664.739,261.262 678.406,249.929 694.5,241.5 Z"/></g>
<g><path style="opacity:1" fill="#9096b7" d="M 895.5,266.5 C 897.054,267.693 898.721,268.86 900.5,270C 902.141,271.129 903.141,272.629 903.5,274.5C 899.896,272.712 897.23,270.045 895.5,266.5 Z"/></g>
<g><path style="opacity:1" fill="#191920" d="M 763.5,161.5 C 763.532,171.652 762.532,181.652 760.5,191.5C 756.918,217.071 752.918,242.571 748.5,268C 751.189,281.401 755.856,294.068 762.5,306C 764.663,310.99 766.33,316.157 767.5,321.5C 767.337,323.857 767.503,326.19 768,328.5C 770.24,336.029 773.407,343.029 777.5,349.5C 776.833,349.5 776.5,349.833 776.5,350.5C 776.631,351.376 776.298,352.043 775.5,352.5C 763.995,325.156 753.328,297.489 743.5,269.5C 749.849,233.32 756.515,197.32 763.5,161.5 Z"/></g>
<g><path style="opacity:1" fill="#181a1f" d="M 835.5,196.5 C 835.5,197.167 835.5,197.833 835.5,198.5C 838.519,212.209 841.519,225.876 844.5,239.5C 846.039,251.117 847.372,262.783 848.5,274.5C 855.169,278.834 861.836,283.168 868.5,287.5C 872.783,292.614 877.616,297.281 883,301.5C 886.394,305.898 889.394,310.565 892,315.5C 892.49,316.793 892.657,318.127 892.5,319.5C 893.675,319.281 894.675,319.614 895.5,320.5C 897.333,323.5 899.167,326.5 901,329.5C 904.233,342.348 907.733,355.014 911.5,367.5C 916.485,367.618 920.818,369.451 924.5,373C 925.448,373.483 926.448,373.649 927.5,373.5C 927.281,374.675 927.614,375.675 928.5,376.5C 932.464,378.149 936.131,380.316 939.5,383C 945.872,385.019 951.539,388.352 956.5,393C 960.334,393.57 963.001,395.57 964.5,399C 966.256,399.202 967.922,399.702 969.5,400.5C 973.712,403.317 977.712,406.317 981.5,409.5C 981.427,411.027 982.094,412.027 983.5,412.5C 984.091,413.151 984.757,413.818 985.5,414.5C 984.998,415.521 984.332,415.688 983.5,415C 959.086,398.372 933.92,382.872 908,368.5C 900.763,328.669 880.097,298.002 846,276.5C 841.444,248.478 837.111,220.478 833,192.5C 833.608,194.066 834.442,195.4 835.5,196.5 Z"/></g>
<g><path style="opacity:1" fill="#5c5c7c" d="M 809.5,279.5 C 806.929,287.562 803.596,295.229 799.5,302.5C 801.418,295.322 803.918,288.322 807,281.5C 807.708,280.619 808.542,279.953 809.5,279.5 Z"/></g>
<g><path style="opacity:1" fill="#9298b9" d="M 909.5,281.5 C 921.729,293.943 930.396,308.61 935.5,325.5C 931.274,318.052 927.274,310.385 923.5,302.5C 918.812,295.485 914.145,288.485 909.5,281.5 Z"/></g>
<g><path style="opacity:1" fill="#1f222d" d="M 653.5,275.5 C 647.007,286.849 639.84,297.849 632,308.5C 628.461,318.693 624.628,328.693 620.5,338.5C 618.689,340.385 617.522,342.719 617,345.5C 616.497,350.19 615.83,354.857 615,359.5C 614.148,360.571 613.315,361.571 612.5,362.5C 616.765,331.784 628.598,304.451 648,280.5C 649.704,278.627 651.537,276.96 653.5,275.5 Z"/></g>
<g><path style="opacity:1" fill="#17182c" d="M 767.5,321.5 C 770.564,327.299 773.397,333.299 776,339.5C 776.33,342.489 777.164,345.322 778.5,348C 778.43,348.765 778.097,349.265 777.5,349.5C 773.407,343.029 770.24,336.029 768,328.5C 767.503,326.19 767.337,323.857 767.5,321.5 Z"/></g>
<g><path style="opacity:1" fill="#62627f" d="M 792.5,319.5 C 789.124,329.639 784.791,339.305 779.5,348.5C 782.031,341.036 784.864,333.703 788,326.5C 789.026,323.761 790.526,321.428 792.5,319.5 Z"/></g>
<g><path style="opacity:1" fill="#5f6691" d="M 671.5,310.5 C 660.232,327.313 652.899,345.646 649.5,365.5C 649.335,361.818 649.501,358.152 650,354.5C 653.387,340.723 658.72,327.723 666,315.5C 667.426,313.234 669.26,311.568 671.5,310.5 Z"/></g>
<g><path style="opacity:1" fill="#171b33" d="M 620.5,338.5 C 618.931,348.775 616.431,358.775 613,368.5C 611.556,370.155 609.722,370.822 607.5,370.5C 609.678,368.142 611.345,365.475 612.5,362.5C 613.315,361.571 614.148,360.571 615,359.5C 615.83,354.857 616.497,350.19 617,345.5C 617.522,342.719 618.689,340.385 620.5,338.5 Z"/></g>
<g><path style="opacity:1" fill="#8d92b4" d="M 938.5,333.5 C 942.128,344.664 945.461,355.998 948.5,367.5C 946.926,367.063 945.759,366.063 945,364.5C 942.693,354.174 940.526,343.84 938.5,333.5 Z"/></g>
<g><path style="opacity:1" fill="#7f83a5" d="M 777.5,367.5 C 778.189,366.226 779.023,366.226 780,367.5C 781.193,369.886 782.36,372.22 783.5,374.5C 780.789,372.725 778.789,370.391 777.5,367.5 Z"/></g>
<g><path style="opacity:1" fill="#888faf" d="M 953.5,373.5 C 958.2,378.199 962.534,383.199 966.5,388.5C 961.026,384.597 956.693,379.597 953.5,373.5 Z"/></g>
<g><path style="opacity:1" fill="#222641" d="M 607.5,370.5 C 607.657,371.873 607.49,373.207 607,374.5C 605.415,375.376 604.415,376.709 604,378.5C 600.475,381.026 597.642,384.193 595.5,388C 594.255,388.791 592.922,389.291 591.5,389.5C 596.111,382.556 601.445,376.222 607.5,370.5 Z"/></g>
<g><path style="opacity:1" fill="#2c3876" d="M 777.5,367.5 C 778.789,370.391 780.789,372.725 783.5,374.5C 783.34,376.199 783.506,377.866 784,379.5C 788.428,386.027 792.595,392.693 796.5,399.5C 784.833,399.5 773.167,399.5 761.5,399.5C 763.5,394.167 765.5,388.833 767.5,383.5C 768.5,383.5 769.5,383.5 770.5,383.5C 770.092,380.401 771.259,378.067 774,376.5C 774.561,373.721 775.394,371.054 776.5,368.5C 777.167,368.5 777.5,368.167 777.5,367.5 Z"/></g>
<g><path style="opacity:1" fill="#828aae" d="M 783.5,374.5 C 788.737,382.632 793.737,390.965 798.5,399.5C 797.833,399.5 797.167,399.5 796.5,399.5C 792.595,392.693 788.428,386.027 784,379.5C 783.506,377.866 783.34,376.199 783.5,374.5 Z"/></g>
<g><path style="opacity:1" fill="#1b1d2d" d="M 776.5,368.5 C 775.394,371.054 774.561,373.721 774,376.5C 771.259,378.067 770.092,380.401 770.5,383.5C 769.5,383.5 768.5,383.5 767.5,383.5C 765.5,388.833 763.5,394.167 761.5,399.5C 773.167,399.5 784.833,399.5 796.5,399.5C 797.167,399.5 797.833,399.5 798.5,399.5C 797.602,400.158 796.602,400.824 795.5,401.5C 782.179,402.666 768.846,402.833 755.5,402C 761.807,391.216 767.974,380.383 774,369.5C 774.671,368.748 775.504,368.414 776.5,368.5 Z"/></g>
<g><path style="opacity:1" fill="#999bae" d="M 652.5,405.5 C 682.329,404.502 712.329,404.169 742.5,404.5C 742.737,405.791 742.404,406.791 741.5,407.5C 712.185,405.508 682.519,404.841 652.5,405.5 Z"/></g>
<g><path style="opacity:1" fill="#9899ac" d="M 905.5,405.5 C 875.833,405.5 846.167,405.5 816.5,405.5C 815.26,406.659 813.926,407.659 812.5,408.5C 811.957,408.44 811.624,408.107 811.5,407.5C 812.5,406.833 813.5,406.167 814.5,405.5C 844.997,404.17 875.331,404.17 905.5,405.5 Z"/></g>
<g><path style="opacity:1" fill="#8489a7" d="M 975.5,399.5 C 977.371,399.859 978.871,400.859 980,402.5C 982.833,406 985.667,409.5 988.5,413C 986.953,413.333 985.62,412.833 984.5,411.5C 983.893,411.624 983.56,411.957 983.5,412.5C 982.094,412.027 981.427,411.027 981.5,409.5C 982.423,410.303 983.423,410.47 984.5,410C 981.137,406.748 978.137,403.248 975.5,399.5 Z"/></g>
<g><path style="opacity:1" fill="#4d4e6d" d="M 650.5,406.5 C 650.842,405.662 651.508,405.328 652.5,405.5C 682.519,404.841 712.185,405.508 741.5,407.5C 741.167,408.5 740.5,409.167 739.5,409.5C 739.5,408.5 739.5,407.5 739.5,406.5C 709.833,406.5 680.167,406.5 650.5,406.5 Z"/></g>
<g><path style="opacity:1" fill="#4f5070" d="M 816.5,405.5 C 846.167,405.5 875.833,405.5 905.5,405.5C 907.23,406.026 908.564,407.026 909.5,408.5C 907.692,408.509 906.025,408.009 904.5,407C 876.169,406.5 847.835,406.333 819.5,406.5C 818.209,406.737 817.209,406.404 816.5,405.5 Z"/></g>
<g><path style="opacity:1" fill="#272b3e" d="M 591.5,389.5 C 591.649,390.552 591.483,391.552 591,392.5C 586.965,396.2 583.298,400.2 580,404.5C 579.51,405.793 579.343,407.127 579.5,408.5C 576.771,410.774 573.771,412.274 570.5,413C 576.995,404.674 583.995,396.841 591.5,389.5 Z"/></g>
<g><path style="opacity:1" fill="#2b2d5a" d="M 819.5,406.5 C 847.835,406.333 876.169,406.5 904.5,407C 906.025,408.009 907.692,408.509 909.5,408.5C 912.494,411 915.827,413 919.5,414.5C 963.938,442.228 1008.94,469.228 1054.5,495.5C 1050.49,495.666 1046.49,495.499 1042.5,495C 1020.21,490.409 997.877,486.409 975.5,483C 967.867,480.014 959.867,478.68 951.5,479C 926.87,474.672 902.203,470.339 877.5,466C 872.112,460.735 866.612,455.568 861,450.5C 860.517,449.552 860.351,448.552 860.5,447.5C 856.528,446.051 853.194,443.551 850.5,440C 849.552,439.517 848.552,439.351 847.5,439.5C 847.5,438.167 847.5,436.833 847.5,435.5C 841.635,432.642 836.969,428.308 833.5,422.5C 828.557,418.601 824.057,414.267 820,409.5C 819.517,408.552 819.351,407.552 819.5,406.5 Z"/></g>
<g><path style="opacity:1" fill="#2b2e5a" d="M 650.5,406.5 C 680.167,406.5 709.833,406.5 739.5,406.5C 739.5,407.5 739.5,408.5 739.5,409.5C 720.49,428.335 701.49,447.169 682.5,466C 681.473,466.513 680.473,467.013 679.5,467.5C 678.378,466.844 677.045,466.511 675.5,466.5C 619.958,476.332 564.458,485.999 509,495.5C 506.696,495.682 506.196,495.016 507.5,493.5C 508.689,492.571 510.022,492.238 511.5,492.5C 511.5,491.5 511.5,490.5 511.5,489.5C 557.6,461.61 603.933,433.943 650.5,406.5 Z"/></g>
<g><path style="opacity:1" fill="#82839b" d="M 909.5,408.5 C 913.505,409.498 916.839,411.498 919.5,414.5C 915.827,413 912.494,411 909.5,408.5 Z"/></g>
<g><path style="opacity:1" fill="#797993" d="M 919.5,414.5 C 947.473,429.33 974.806,445.497 1001.5,463C 1022.23,475.027 1042.9,487.027 1063.5,499C 1061.32,498.716 1059.32,498.883 1057.5,499.5C 1055.01,498.538 1055.01,497.705 1057.5,497C 1056.47,496.487 1055.47,495.987 1054.5,495.5C 1008.94,469.228 963.938,442.228 919.5,414.5 Z"/></g>
<g><path style="opacity:1" fill="#1e1e2d" d="M 679.5,467.5 C 617.735,479.142 555.735,489.975 493.5,500C 499.363,496.236 505.363,492.736 511.5,489.5C 511.5,490.5 511.5,491.5 511.5,492.5C 510.022,492.238 508.689,492.571 507.5,493.5C 506.196,495.016 506.696,495.682 509,495.5C 564.458,485.999 619.958,476.332 675.5,466.5C 677.045,466.511 678.378,466.844 679.5,467.5 Z"/></g>
<g><path style="opacity:1" fill="#1b1b24" d="M 816.5,405.5 C 817.209,406.404 818.209,406.737 819.5,406.5C 819.351,407.552 819.517,408.552 820,409.5C 824.057,414.267 828.557,418.601 833.5,422.5C 836.969,428.308 841.635,432.642 847.5,435.5C 847.5,436.833 847.5,438.167 847.5,439.5C 848.552,439.351 849.552,439.517 850.5,440C 853.194,443.551 856.528,446.051 860.5,447.5C 860.351,448.552 860.517,449.552 861,450.5C 866.612,455.568 872.112,460.735 877.5,466C 902.203,470.339 926.87,474.672 951.5,479C 959.867,478.68 967.867,480.014 975.5,483C 997.877,486.409 1020.21,490.409 1042.5,495C 1046.49,495.499 1050.49,495.666 1054.5,495.5C 1055.47,495.987 1056.47,496.487 1057.5,497C 1055.01,497.705 1055.01,498.538 1057.5,499.5C 1056.32,500.635 1054.32,500.801 1051.5,500C 991.828,489.443 932.161,478.777 872.5,468C 851.94,448.606 831.94,428.773 812.5,408.5C 813.926,407.659 815.26,406.659 816.5,405.5 Z"/></g>
<g><path style="opacity:1" fill="#2d3a78" d="M 845.5,497.5 C 871.142,502.33 896.809,507.163 922.5,512C 923.056,512.383 923.389,512.883 923.5,513.5C 908.8,514.002 894.133,515.002 879.5,516.5C 878.757,517.182 878.091,517.849 877.5,518.5C 868.963,524.603 859.963,529.936 850.5,534.5C 836.863,539.164 823.196,543.498 809.5,547.5C 806.214,548.207 802.881,548.54 799.5,548.5C 783.505,549.652 767.505,549.652 751.5,548.5C 743.049,546.798 734.716,544.298 726.5,541C 724.19,540.503 721.857,540.337 719.5,540.5C 719.5,539.5 719.5,538.5 719.5,537.5C 709.305,535.38 700.305,530.88 692.5,524C 690.975,522.991 689.308,522.491 687.5,522.5C 687.5,521.5 687.5,520.5 687.5,519.5C 668.479,517.499 649.479,515.499 630.5,513.5C 630.5,512.833 630.167,512.5 629.5,512.5C 656.672,507.884 684.005,503.551 711.5,499.5C 718.437,502.632 725.437,505.799 732.5,509C 735.777,510.143 739.11,510.977 742.5,511.5C 742.833,511.5 743.167,511.5 743.5,511.5C 748.431,513.947 753.765,515.447 759.5,516C 770.833,516.667 782.167,516.667 793.5,516C 796.522,515.902 799.189,515.068 801.5,513.5C 817.091,510.606 831.758,505.273 845.5,497.5 Z"/></g>
<g><path style="opacity:1" fill="#72789f" d="M 711.5,499.5 C 712.601,498.402 713.934,498.235 715.5,499C 724.289,503.73 733.289,507.896 742.5,511.5C 739.11,510.977 735.777,510.143 732.5,509C 725.437,505.799 718.437,502.632 711.5,499.5 Z"/></g>
<g><path style="opacity:1" fill="#676c96" d="M 845.5,497.5 C 847.628,496.371 849.961,496.204 852.5,497C 878.512,502.004 904.512,507.004 930.5,512C 928.339,512.585 926.339,513.418 924.5,514.5C 924.5,513.833 924.167,513.5 923.5,513.5C 923.389,512.883 923.056,512.383 922.5,512C 896.809,507.163 871.142,502.33 845.5,497.5 Z"/></g>
<g><path style="opacity:1" fill="#7c7d7e" d="M 629.5,512.5 C 630.167,512.5 630.5,512.833 630.5,513.5C 629.833,514.167 629.167,514.833 628.5,515.5C 626.897,515.688 625.563,515.188 624.5,514C 626.154,513.392 627.821,512.892 629.5,512.5 Z"/></g>
<g><path style="opacity:1" fill="#595f8e" d="M 743.5,511.5 C 762.667,515.898 782,516.565 801.5,513.5C 799.189,515.068 796.522,515.902 793.5,516C 782.167,516.667 770.833,516.667 759.5,516C 753.765,515.447 748.431,513.947 743.5,511.5 Z"/></g>
<g><path style="opacity:1" fill="#191c28" d="M 923.5,513.5 C 924.167,513.5 924.5,513.833 924.5,514.5C 908.826,515.786 893.159,517.12 877.5,518.5C 878.091,517.849 878.757,517.182 879.5,516.5C 894.133,515.002 908.8,514.002 923.5,513.5 Z"/></g>
<g><path style="opacity:1" fill="#1c1e28" d="M 630.5,513.5 C 649.479,515.499 668.479,517.499 687.5,519.5C 687.5,520.5 687.5,521.5 687.5,522.5C 689.308,522.491 690.975,522.991 692.5,524C 700.305,530.88 709.305,535.38 719.5,537.5C 719.5,538.5 719.5,539.5 719.5,540.5C 721.857,540.337 724.19,540.503 726.5,541C 734.716,544.298 743.049,546.798 751.5,548.5C 765.962,550.439 780.628,550.939 795.5,550C 797.058,549.79 798.391,549.29 799.5,548.5C 802.881,548.54 806.214,548.207 809.5,547.5C 811.099,547.232 812.432,547.566 813.5,548.5C 765.652,559.194 721.652,550.694 681.5,523C 663.846,520.335 646.179,517.835 628.5,515.5C 629.167,514.833 629.833,514.167 630.5,513.5 Z"/></g>
<g><path style="opacity:1" fill="#292e4d" d="M 850.5,534.5 C 838.854,540.719 826.52,545.386 813.5,548.5C 812.432,547.566 811.099,547.232 809.5,547.5C 823.196,543.498 836.863,539.164 850.5,534.5 Z"/></g>
<g><path style="opacity:1" fill="#191f41" d="M 751.5,548.5 C 767.505,549.652 783.505,549.652 799.5,548.5C 798.391,549.29 797.058,549.79 795.5,550C 780.628,550.939 765.962,550.439 751.5,548.5 Z"/></g>
<g><path style="opacity:1" fill="#9ea2bd" d="M 377.5,587.5 C 394.33,586.833 411.33,586.5 428.5,586.5C 445.847,586.5 462.847,587.167 479.5,588.5C 445.877,587.514 412.21,587.181 378.5,587.5C 378.167,587.5 377.833,587.5 377.5,587.5 Z"/></g>
<g><path style="opacity:1" fill="#9da1bc" d="M 481.5,587.5 C 492.988,586.505 504.655,586.172 516.5,586.5C 516.598,588.553 515.931,590.22 514.5,591.5C 514.5,590.167 514.5,588.833 514.5,587.5C 504.167,587.5 493.833,587.5 483.5,587.5C 482.833,587.5 482.167,587.5 481.5,587.5 Z"/></g>
<g><path style="opacity:1" fill="#9b9fb7" d="M 580.5,588.5 C 568.247,587.521 555.913,587.187 543.5,587.5C 542.26,588.659 540.926,589.659 539.5,590.5C 538.957,590.44 538.624,590.107 538.5,589.5C 539.5,588.833 540.5,588.167 541.5,587.5C 548,587.167 554.5,586.833 561,586.5C 567.869,586.503 574.369,587.17 580.5,588.5 Z"/></g>
<g><path style="opacity:1" fill="#9fa3bf" d="M 614.5,587.5 C 655.167,586.167 695.833,586.167 736.5,587.5C 709.5,587.5 682.5,587.5 655.5,587.5C 654.508,587.328 653.842,587.662 653.5,588.5C 640.549,587.537 627.549,587.204 614.5,587.5 Z"/></g>
<g><path style="opacity:1" fill="#9fa3be" d="M 1112.5,587.5 C 1146.66,586.502 1181,586.168 1215.5,586.5C 1215.74,587.791 1215.4,588.791 1214.5,589.5C 1181.52,587.507 1148.18,586.84 1114.5,587.5C 1113.83,587.5 1113.17,587.5 1112.5,587.5 Z"/></g>
<g><path style="opacity:1" fill="#53598b" d="M 378.5,588.5 C 378.5,588.167 378.5,587.833 378.5,587.5C 412.21,587.181 445.877,587.514 479.5,588.5C 480.167,588.5 480.833,588.5 481.5,588.5C 481.5,588.833 481.5,589.167 481.5,589.5C 480.5,589.5 479.5,589.5 478.5,589.5C 478.737,590.791 478.404,591.791 477.5,592.5C 477.167,592.5 476.833,592.5 476.5,592.5C 476.5,591.167 476.5,589.833 476.5,588.5C 443.833,588.5 411.167,588.5 378.5,588.5 Z"/></g>
<g><path style="opacity:1" fill="#5e6493" d="M 543.5,588.5 C 543.5,588.167 543.5,587.833 543.5,587.5C 555.913,587.187 568.247,587.521 580.5,588.5C 582.353,591.208 583.353,594.208 583.5,597.5C 581.747,594.844 580.081,592.011 578.5,589C 567.172,588.5 555.838,588.333 544.5,588.5C 544.167,588.5 543.833,588.5 543.5,588.5 Z"/></g>
<g><path style="opacity:1" fill="#565c8f" d="M 655.5,588.5 C 655.5,588.167 655.5,587.833 655.5,587.5C 682.5,587.5 709.5,587.5 736.5,587.5C 740.227,587.495 743.227,588.829 745.5,591.5C 743.079,590.109 740.412,589.275 737.5,589C 710.169,588.5 682.835,588.333 655.5,588.5 Z"/></g>
<g><path style="opacity:1" fill="#6e729e" d="M 765.5,587.5 C 792.997,586.336 820.664,586.17 848.5,587C 850.518,587.505 852.518,588.005 854.5,588.5C 855.167,589.5 855.833,590.5 856.5,591.5C 854.407,590.955 852.407,590.122 850.5,589C 822.125,588.817 793.791,588.317 765.5,587.5 Z"/></g>
<g><path style="opacity:1" fill="#6b719c" d="M 927.5,588.5 C 942.34,585.766 956.34,588.266 969.5,596C 970.381,596.708 971.047,597.542 971.5,598.5C 957.889,590.765 943.222,587.432 927.5,588.5 Z"/></g>
<g><path style="opacity:1" fill="#52598c" d="M 1114.5,587.5 C 1148.18,586.84 1181.52,587.507 1214.5,589.5C 1213.3,591.909 1211.63,593.909 1209.5,595.5C 1209.58,593.071 1210.58,591.071 1212.5,589.5C 1179.67,588.833 1147,588.167 1114.5,587.5 Z"/></g>
<g><path style="opacity:1" fill="#2c3a78" d="M 655.5,588.5 C 682.835,588.333 710.169,588.5 737.5,589C 740.412,589.275 743.079,590.109 745.5,591.5C 747.506,595.027 749.34,598.694 751,602.5C 751.499,606.152 751.665,609.818 751.5,613.5C 749.763,621.074 747.097,628.407 743.5,635.5C 735.987,650.68 724.987,662.68 710.5,671.5C 701.509,674.905 692.343,677.905 683,680.5C 662.849,681.446 642.682,681.779 622.5,681.5C 624.043,669.643 627.876,658.643 634,648.5C 635.414,641.951 637.247,635.618 639.5,629.5C 640.458,629.047 641.292,628.381 642,627.5C 642.082,621.678 644.082,616.678 648,612.5C 648.884,607.443 650.051,602.443 651.5,597.5C 653.658,594.852 654.992,591.852 655.5,588.5 Z"/></g>
<g><path style="opacity:1" fill="#2c3978" d="M 765.5,587.5 C 793.791,588.317 822.125,588.817 850.5,589C 852.407,590.122 854.407,590.955 856.5,591.5C 858.866,594.857 861.199,598.19 863.5,601.5C 864.632,609.225 864.632,616.892 863.5,624.5C 861.825,627.877 860.158,631.211 858.5,634.5C 858.565,634.062 858.399,633.728 858,633.5C 854.365,637.063 850.199,639.73 845.5,641.5C 840.284,642.804 834.951,643.637 829.5,644C 826.497,644.749 823.831,645.915 821.5,647.5C 819.207,648.301 819.54,648.968 822.5,649.5C 822.351,650.552 822.517,651.552 823,652.5C 833.093,661.092 842.26,670.425 850.5,680.5C 838.993,681.824 827.327,681.824 815.5,680.5C 812.659,676.31 808.993,673.31 804.5,671.5C 803.55,668.885 801.883,666.885 799.5,665.5C 796.924,661.033 793.257,657.699 788.5,655.5C 786.058,651.116 782.391,648.449 777.5,647.5C 777.5,648.833 777.5,650.167 777.5,651.5C 775.621,652.895 774.621,654.895 774.5,657.5C 772.399,660.248 770.566,663.248 769,666.5C 767.783,671.317 766.283,675.984 764.5,680.5C 754.5,680.5 744.5,680.5 734.5,680.5C 734.575,677.794 734.908,675.127 735.5,672.5C 738.72,665.656 740.887,658.322 742,650.5C 748.937,635.349 754.604,619.683 759,603.5C 762.195,599.794 764.361,595.461 765.5,590.5C 764.675,589.614 763.675,589.281 762.5,589.5C 763.5,588.833 764.5,588.167 765.5,587.5 Z"/></g>
<g><path style="opacity:1" fill="#273469" d="M 543.5,588.5 C 543.833,588.5 544.167,588.5 544.5,588.5C 545.952,589.302 547.618,589.802 549.5,590C 558.167,590.333 566.833,590.667 575.5,591C 570.177,591.499 564.844,591.666 559.5,591.5C 559.671,594.797 559.005,595.131 557.5,592.5C 556.311,591.571 554.978,591.238 553.5,591.5C 554.269,594.951 555.103,598.284 556,601.5C 554.354,600.221 553.187,598.555 552.5,596.5C 551.914,596.709 551.414,597.043 551,597.5C 550.138,595.913 549.471,594.246 549,592.5C 547.919,595.968 548.585,598.968 551,601.5C 551.495,603.473 551.662,605.473 551.5,607.5C 553.5,607.5 555.5,607.5 557.5,607.5C 556.758,609.594 556.091,611.761 555.5,614C 557.715,621.285 560.215,628.452 563,635.5C 563.667,638.833 563.667,642.167 563,645.5C 561.887,646.305 560.721,646.972 559.5,647.5C 559.366,643.698 560.033,640.032 561.5,636.5C 560.509,633.185 559.009,630.185 557,627.5C 553.613,616.807 550.28,606.14 547,595.5C 545.55,593.243 544.383,590.91 543.5,588.5 Z"/></g>
<g><path style="opacity:1" fill="#2e3b78" d="M 927.5,588.5 C 943.222,587.432 957.889,590.765 971.5,598.5C 972.492,598.328 973.158,598.662 973.5,599.5C 972.118,602.394 970.118,604.894 967.5,607C 959.615,614.088 951.615,620.922 943.5,627.5C 942.928,624.055 941.428,621.055 939,618.5C 938.591,614.703 937.758,611.036 936.5,607.5C 935.5,607.5 934.5,607.5 933.5,607.5C 934.201,603.181 933.034,599.514 930,596.5C 929.326,593.74 928.493,591.073 927.5,588.5 Z"/></g>
<g><path style="opacity:1" fill="#2c3a78" d="M 378.5,588.5 C 411.167,588.5 443.833,588.5 476.5,588.5C 476.5,589.833 476.5,591.167 476.5,592.5C 471.879,600.122 465.879,606.455 458.5,611.5C 440.338,610.338 422.005,610.171 403.5,611C 402.748,611.671 402.414,612.504 402.5,613.5C 399.433,616.015 398.099,619.349 398.5,623.5C 397.25,623.577 396.417,624.244 396,625.5C 394.194,630.101 392.694,634.767 391.5,639.5C 394.323,638.783 396.99,637.783 399.5,636.5C 402.018,632.126 405.018,628.126 408.5,624.5C 422.327,623.339 436.327,623.173 450.5,624C 442.662,631.005 434.996,638.172 427.5,645.5C 415.495,645.333 403.495,645.5 391.5,646C 390.177,646.816 389.511,647.983 389.5,649.5C 388.833,650.5 388.167,651.5 387.5,652.5C 385.799,654.731 384.466,657.231 383.5,660C 382.216,660.684 381.049,660.517 380,659.5C 379.75,666.587 378.917,673.587 377.5,680.5C 377.179,682.048 376.179,682.715 374.5,682.5C 364.681,681.506 354.681,681.173 344.5,681.5C 344.67,679.152 345.003,676.818 345.5,674.5C 349.267,664.393 353.434,654.393 358,644.5C 357.775,639.606 359.275,635.439 362.5,632C 366.378,617.004 371.711,602.504 378.5,588.5 Z"/></g>
<g><path style="opacity:1" fill="#2c3978" d="M 481.5,587.5 C 482.167,587.5 482.833,587.5 483.5,587.5C 493.319,588.494 503.319,588.827 513.5,588.5C 504.75,611.917 496.75,635.583 489.5,659.5C 507.833,659.5 526.167,659.5 544.5,659.5C 544.5,660.5 544.5,661.5 544.5,662.5C 540.879,667.293 537.046,671.96 533,676.5C 530.894,679.118 528.394,681.118 525.5,682.5C 500.339,681.502 475.005,681.169 449.5,681.5C 450.685,675.773 452.185,670.106 454,664.5C 454.615,662.884 455.615,661.551 457,660.5C 459.069,652.562 461.902,644.896 465.5,637.5C 471.439,621.683 476.772,605.683 481.5,589.5C 481.5,589.167 481.5,588.833 481.5,588.5C 481.5,588.167 481.5,587.833 481.5,587.5 Z"/></g>
<g><path style="opacity:1" fill="#2d3a79" d="M 614.5,587.5 C 627.549,587.204 640.549,587.537 653.5,588.5C 653.5,588.833 653.5,589.167 653.5,589.5C 652.391,589.557 651.391,589.89 650.5,590.5C 650.565,590.062 650.399,589.728 650,589.5C 633.238,605.105 616.072,620.105 598.5,634.5C 596.83,634.751 595.33,635.418 594,636.5C 592.641,640.405 591.808,644.405 591.5,648.5C 589.331,652.32 586.998,656.154 584.5,660C 585.784,661.297 585.617,662.464 584,663.5C 583.71,661.956 583.044,660.623 582,659.5C 580.524,663.127 579.024,666.793 577.5,670.5C 578.325,671.386 579.325,671.719 580.5,671.5C 580.276,675.179 579.942,678.846 579.5,682.5C 578.833,682.5 578.167,682.5 577.5,682.5C 567.681,681.506 557.681,681.173 547.5,681.5C 550.662,671.527 553.828,661.527 557,651.5C 558.095,650.307 558.928,648.973 559.5,647.5C 560.721,646.972 561.887,646.305 563,645.5C 563.667,642.167 563.667,638.833 563,635.5C 560.215,628.452 557.715,621.285 555.5,614C 556.091,611.761 556.758,609.594 557.5,607.5C 555.5,607.5 553.5,607.5 551.5,607.5C 551.662,605.473 551.495,603.473 551,601.5C 548.585,598.968 547.919,595.968 549,592.5C 549.471,594.246 550.138,595.913 551,597.5C 551.414,597.043 551.914,596.709 552.5,596.5C 553.187,598.555 554.354,600.221 556,601.5C 555.103,598.284 554.269,594.951 553.5,591.5C 554.978,591.238 556.311,591.571 557.5,592.5C 559.005,595.131 559.671,594.797 559.5,591.5C 564.844,591.666 570.177,591.499 575.5,591C 566.833,590.667 558.167,590.333 549.5,590C 547.618,589.802 545.952,589.302 544.5,588.5C 555.838,588.333 567.172,588.5 578.5,589C 580.081,592.011 581.747,594.844 583.5,597.5C 585.354,601.278 587.354,604.944 589.5,608.5C 589.369,609.376 589.702,610.043 590.5,610.5C 591.386,609.675 591.719,608.675 591.5,607.5C 598.411,603.592 604.077,598.259 608.5,591.5C 610.228,589.774 612.228,588.441 614.5,587.5 Z"/></g>
<g><path style="opacity:1" fill="#2c3a78" d="M 1003.5,587.5 C 1017.5,587.5 1031.5,587.5 1045.5,587.5C 1045.92,593.189 1046.59,598.856 1047.5,604.5C 1049.95,616.335 1052.61,628.002 1055.5,639.5C 1057.09,638.652 1058.26,637.319 1059,635.5C 1060.35,630.146 1061.68,624.813 1063,619.5C 1066.77,615.575 1069.44,610.908 1071,605.5C 1071.44,599.389 1072.94,593.722 1075.5,588.5C 1075.5,588.167 1075.5,587.833 1075.5,587.5C 1086.12,588.454 1096.78,588.787 1107.5,588.5C 1104.98,597.886 1102.15,607.219 1099,616.5C 1095.42,622.402 1093.09,628.735 1092,635.5C 1088.38,642.517 1085.88,649.85 1084.5,657.5C 1083.54,657.953 1082.71,658.619 1082,659.5C 1080.38,663.347 1079.38,667.347 1079,671.5C 1076.83,674.173 1075.33,677.173 1074.5,680.5C 1061.5,680.667 1048.5,680.5 1035.5,680C 1035.04,679.586 1034.71,679.086 1034.5,678.5C 1036.05,677.548 1037.71,677.215 1039.5,677.5C 1039.5,676.167 1039.5,674.833 1039.5,673.5C 1037.5,673.5 1035.5,673.5 1033.5,673.5C 1033.13,668.386 1032.13,663.386 1030.5,658.5C 1030.86,656.579 1031.69,654.912 1033,653.5C 1033.28,647.911 1034.11,642.411 1035.5,637C 1034.83,633.667 1034.17,633.667 1033.5,637C 1032.96,641.895 1032.12,646.728 1031,651.5C 1030,649.833 1029,648.167 1028,646.5C 1027.67,641.5 1027.33,636.5 1027,631.5C 1025.41,630.624 1023.91,629.624 1022.5,628.5C 1021.83,629.949 1021.16,631.282 1020.5,632.5C 1020.63,631.761 1020.46,631.094 1020,630.5C 1018.63,634.667 1016.96,638.667 1015,642.5C 1013.32,646.705 1012.15,651.038 1011.5,655.5C 1009.49,664.509 1006.49,673.176 1002.5,681.5C 1002.04,682.298 1001.38,682.631 1000.5,682.5C 1000.61,681.883 1000.94,681.383 1001.5,681C 991.506,680.5 981.506,680.334 971.5,680.5C 972.616,675.03 973.949,669.697 975.5,664.5C 978.207,653.752 982.04,643.419 987,633.5C 989.065,624.687 991.231,616.02 993.5,607.5C 994.5,607.5 995.5,607.5 996.5,607.5C 996.34,605.801 996.506,604.134 997,602.5C 1000.22,597.982 1002.38,592.982 1003.5,587.5 Z"/></g>
<g><path style="opacity:1" fill="#9fa5c5" d="M 854.5,588.5 C 857.764,589.927 860.264,592.261 862,595.5C 863.128,597.345 863.628,599.345 863.5,601.5C 861.199,598.19 858.866,594.857 856.5,591.5C 855.833,590.5 855.167,589.5 854.5,588.5 Z"/></g>
<g><path style="opacity:1" fill="#1e222b" d="M 762.5,589.5 C 763.675,589.281 764.675,589.614 765.5,590.5C 764.361,595.461 762.195,599.794 759,603.5C 754.604,619.683 748.937,635.349 742,650.5C 740.887,658.322 738.72,665.656 735.5,672.5C 732.534,675.118 731.867,678.285 733.5,682C 743.161,682.5 752.828,682.666 762.5,682.5C 757.04,683.829 751.207,684.496 745,684.5C 739.167,684.167 733.333,683.833 727.5,683.5C 733.307,667.41 739.307,651.41 745.5,635.5C 748.299,630.211 750.299,624.544 751.5,618.5C 752.795,616.021 753.795,613.354 754.5,610.5C 756.791,603.285 759.458,596.285 762.5,589.5 Z"/></g>
<g><path style="opacity:1" fill="#2e3350" d="M 608.5,591.5 C 604.077,598.259 598.411,603.592 591.5,607.5C 591.719,608.675 591.386,609.675 590.5,610.5C 589.702,610.043 589.369,609.376 589.5,608.5C 595.604,602.609 601.937,596.942 608.5,591.5 Z"/></g>
<g><path style="opacity:1" fill="#888cb1" d="M 745.5,591.5 C 747.017,591.511 748.184,592.177 749,593.5C 752.636,598.65 754.469,604.317 754.5,610.5C 753.795,613.354 752.795,616.021 751.5,618.5C 751.5,616.833 751.5,615.167 751.5,613.5C 751.665,609.818 751.499,606.152 751,602.5C 749.34,598.694 747.506,595.027 745.5,591.5 Z"/></g>
<g><path style="opacity:1" fill="#2e3a77" d="M 918.5,590.5 C 920.494,598.845 923.494,606.845 927.5,614.5C 927.376,615.107 927.043,615.44 926.5,615.5C 909.833,615.5 893.167,615.5 876.5,615.5C 877.199,613.005 878.199,610.672 879.5,608.5C 890.794,599.023 903.794,593.023 918.5,590.5 Z"/></g>
<g><path style="opacity:1" fill="#aeb3cc" d="M 918.5,590.5 C 920.013,593.524 922.013,596.191 924.5,598.5C 925.165,604.81 926.832,610.81 929.5,616.5C 928.5,616.5 927.5,616.5 926.5,616.5C 926.5,616.167 926.5,615.833 926.5,615.5C 927.043,615.44 927.376,615.107 927.5,614.5C 923.494,606.845 920.494,598.845 918.5,590.5 Z"/></g>
<g><path style="opacity:1" fill="#959bb9" d="M 1002.5,587.5 C 1017.01,586.174 1031.67,586.174 1046.5,587.5C 1049.52,603.345 1052.86,619.012 1056.5,634.5C 1055.7,636.042 1055.37,637.708 1055.5,639.5C 1052.61,628.002 1049.95,616.335 1047.5,604.5C 1046.59,598.856 1045.92,593.189 1045.5,587.5C 1031.5,587.5 1017.5,587.5 1003.5,587.5C 1003.17,587.5 1002.83,587.5 1002.5,587.5 Z"/></g>
<g><path style="opacity:1" fill="#2d3a77" d="M 1112.5,587.5 C 1113.17,587.5 1113.83,587.5 1114.5,587.5C 1147,588.167 1179.67,588.833 1212.5,589.5C 1210.58,591.071 1209.58,593.071 1209.5,595.5C 1205.9,602.098 1200.9,607.431 1194.5,611.5C 1176,610.172 1157.33,610.172 1138.5,611.5C 1138.14,612.183 1137.8,612.85 1137.5,613.5C 1135.14,620.92 1132.48,628.253 1129.5,635.5C 1130,636.521 1130.67,636.688 1131.5,636C 1135.68,631.657 1140.01,627.491 1144.5,623.5C 1158.34,623.171 1172.01,623.504 1185.5,624.5C 1177.49,632.507 1169.16,640.173 1160.5,647.5C 1149.67,646.341 1138.67,646.174 1127.5,647C 1126.58,647.278 1125.92,647.778 1125.5,648.5C 1124.5,648.5 1123.5,648.5 1122.5,648.5C 1122.66,651.528 1121.99,654.361 1120.5,657C 1120.57,657.765 1120.9,658.265 1121.5,658.5C 1121.92,659.222 1122.58,659.722 1123.5,660C 1144.5,660.333 1165.5,660.667 1186.5,661C 1185.62,662.356 1185.29,663.856 1185.5,665.5C 1180.77,672.568 1174.77,678.235 1167.5,682.5C 1138.67,681.502 1109.67,681.169 1080.5,681.5C 1080.34,679.801 1080.51,678.134 1081,676.5C 1085.15,665.445 1089.49,654.445 1094,643.5C 1095.55,634.301 1098.55,625.634 1103,617.5C 1103.68,610.812 1106.01,604.812 1110,599.5C 1110.22,595.944 1111.06,592.611 1112.5,589.5C 1112.5,589.167 1112.5,588.833 1112.5,588.5C 1112.5,588.167 1112.5,587.833 1112.5,587.5 Z"/></g>
<g><path style="opacity:1" fill="#959bb6" d="M 977.5,605.5 C 977.56,604.957 977.893,604.624 978.5,604.5C 981.206,606.524 982.539,609.19 982.5,612.5C 980.588,610.343 978.921,608.009 977.5,605.5 Z"/></g>
<g><path style="opacity:1" fill="#444d83" d="M 680.5,610.5 C 680.5,611.167 680.5,611.833 680.5,612.5C 680.5,612.833 680.5,613.167 680.5,613.5C 674.042,628.104 668.375,643.104 663.5,658.5C 666.167,658.5 668.833,658.5 671.5,658.5C 668.713,659.477 665.713,659.81 662.5,659.5C 661.603,652.808 661.603,646.141 662.5,639.5C 664.5,640.167 666.5,640.833 668.5,641.5C 671.318,632.236 673.484,622.902 675,613.5C 673.935,615.396 673.102,615.563 672.5,614C 672.905,613.055 673.572,612.388 674.5,612C 672.369,610.112 672.369,608.612 674.5,607.5C 676.048,609.376 678.048,610.376 680.5,610.5 Z"/></g>
<g><path style="opacity:1" fill="#25273b" d="M 827.5,623.5 C 827.167,623.5 826.833,623.5 826.5,623.5C 827.207,620.214 827.54,616.881 827.5,613.5C 815.167,613.5 802.833,613.5 790.5,613.5C 790.574,611.589 791.574,610.422 793.5,610C 805.833,609.333 818.167,609.333 830.5,610C 831.617,613.073 831.784,616.24 831,619.5C 830.502,621.544 829.335,622.878 827.5,623.5 Z"/></g>
<g><path style="opacity:1" fill="#1a1b1e" d="M 927.5,588.5 C 928.493,591.073 929.326,593.74 930,596.5C 933.034,599.514 934.201,603.181 933.5,607.5C 934.5,607.5 935.5,607.5 936.5,607.5C 937.758,611.036 938.591,614.703 939,618.5C 941.428,621.055 942.928,624.055 943.5,627.5C 942.86,629.332 941.86,629.665 940.5,628.5C 935.919,616.394 930.586,604.727 924.5,593.5C 924.241,591.011 925.241,589.344 927.5,588.5 Z"/></g>
<g><path style="opacity:1" fill="#272739" d="M 1194.5,611.5 C 1193.71,611.783 1193.04,612.283 1192.5,613C 1174.17,613.5 1155.84,613.667 1137.5,613.5C 1137.8,612.85 1138.14,612.183 1138.5,611.5C 1157.33,610.172 1176,610.172 1194.5,611.5 Z"/></g>
<g><path style="opacity:1" fill="#252533" d="M 458.5,611.5 C 458.082,612.222 457.416,612.722 456.5,613C 438.503,613.5 420.503,613.667 402.5,613.5C 402.414,612.504 402.748,611.671 403.5,611C 422.005,610.171 440.338,610.338 458.5,611.5 Z"/></g>
<g><path style="opacity:1" fill="#f5f6f7" d="M 924.5,593.5 C 930.586,604.727 935.919,616.394 940.5,628.5C 941.86,629.665 942.86,629.332 943.5,627.5C 951.615,620.922 959.615,614.088 967.5,607C 970.118,604.894 972.118,602.394 973.5,599.5C 974.801,600.884 974.801,602.384 973.5,604C 974.527,604.513 975.527,605.013 976.5,605.5C 970.167,611.5 963.833,617.5 957.5,623.5C 948.841,630.827 940.507,638.493 932.5,646.5C 946.833,647.833 961.167,647.833 975.5,646.5C 976.652,645.375 977.652,645.375 978.5,646.5C 976.303,651.756 974.303,657.089 972.5,662.5C 970.408,662.439 968.908,661.439 968,659.5C 967.184,660.823 966.017,661.489 964.5,661.5C 966.64,658.939 968.973,656.605 971.5,654.5C 972.478,654.189 973.145,653.522 973.5,652.5C 954.167,651.167 934.833,651.167 915.5,652.5C 914.5,653.167 913.5,653.833 912.5,654.5C 912.624,655.107 912.957,655.44 913.5,655.5C 914.448,658.14 915.448,660.807 916.5,663.5C 914.907,662.652 913.74,661.319 913,659.5C 912.283,660.044 911.783,660.711 911.5,661.5C 908.755,655.675 905.755,650.008 902.5,644.5C 902.934,641.834 901.934,640.667 899.5,641C 893.971,645.699 888.638,650.532 883.5,655.5C 878.833,659.5 874.167,663.5 869.5,667.5C 868.238,664.533 866.238,663.866 863.5,665.5C 864.306,664.272 865.306,663.272 866.5,662.5C 881.276,649.563 895.943,636.396 910.5,623C 896.171,622.5 881.837,622.333 867.5,622.5C 867.279,619.903 866.779,619.903 866,622.5C 865.501,618.179 865.334,613.846 865.5,609.5C 866.314,611.631 866.814,613.964 867,616.5C 868.33,615.418 869.83,614.751 871.5,614.5C 871.167,615.167 870.833,615.833 870.5,616.5C 869.711,616.783 869.044,617.283 868.5,618C 888.004,618.829 907.338,618.662 926.5,617.5C 926.5,617.167 926.5,616.833 926.5,616.5C 927.5,616.5 928.5,616.5 929.5,616.5C 926.832,610.81 925.165,604.81 924.5,598.5C 924.5,596.833 924.5,595.167 924.5,593.5 Z"/></g>
<g><path style="opacity:1" fill="#fafafb" d="M 680.5,613.5 C 690.172,613.334 699.839,613.5 709.5,614C 712.349,616.559 713.183,619.726 712,623.5C 710.456,629.591 707.623,634.924 703.5,639.5C 699.31,644.601 694.31,648.768 688.5,652C 682.684,654.1 677.017,656.267 671.5,658.5C 668.833,658.5 666.167,658.5 663.5,658.5C 668.375,643.104 674.042,628.104 680.5,613.5 Z"/></g>
<g><path style="opacity:1" fill="#f5f6f7" d="M 790.5,613.5 C 802.833,613.5 815.167,613.5 827.5,613.5C 827.54,616.881 827.207,620.214 826.5,623.5C 816.161,623.334 805.828,623.5 795.5,624C 791.367,627.131 787.534,630.631 784,634.5C 784.826,629.5 785.993,624.5 787.5,619.5C 788.797,617.629 789.797,615.629 790.5,613.5 Z"/></g>
<g><path style="opacity:1" fill="#171b2d" d="M 879.5,608.5 C 878.199,610.672 877.199,613.005 876.5,615.5C 893.167,615.5 909.833,615.5 926.5,615.5C 926.5,615.833 926.5,616.167 926.5,616.5C 926.5,616.833 926.5,617.167 926.5,617.5C 907.659,617.83 888.993,617.497 870.5,616.5C 870.833,615.833 871.167,615.167 871.5,614.5C 873.884,612.115 876.55,610.115 879.5,608.5 Z"/></g>
<g><path style="opacity:1" fill="#767da6" d="M 402.5,613.5 C 401.517,617.09 400.183,620.423 398.5,623.5C 398.099,619.349 399.433,616.015 402.5,613.5 Z"/></g>
<g><path style="opacity:1" fill="#5a5a5d" d="M 870.5,616.5 C 888.993,617.497 907.659,617.83 926.5,617.5C 907.338,618.662 888.004,618.829 868.5,618C 869.044,617.283 869.711,616.783 870.5,616.5 Z"/></g>
<g><path style="opacity:1" fill="#27282e" d="M 710.5,633.5 C 708.746,636.26 706.412,638.26 703.5,639.5C 707.623,634.924 710.456,629.591 712,623.5C 713.183,619.726 712.349,616.559 709.5,614C 699.839,613.5 690.172,613.334 680.5,613.5C 680.5,613.167 680.5,612.833 680.5,612.5C 691.15,611.521 701.817,611.354 712.5,612C 713.852,614.294 714.519,616.794 714.5,619.5C 713.627,624.343 712.294,629.01 710.5,633.5 Z"/></g>
<g><path style="opacity:1" fill="#191f3f" d="M 710.5,633.5 C 712.294,629.01 713.627,624.343 714.5,619.5C 714.519,616.794 713.852,614.294 712.5,612C 701.817,611.354 691.15,611.521 680.5,612.5C 680.5,611.833 680.5,611.167 680.5,610.5C 691.757,609.357 703.091,609.19 714.5,610C 715,610.5 715.5,611 716,611.5C 717.875,619.889 716.041,627.222 710.5,633.5 Z"/></g>
<g><path style="opacity:1" fill="#9297b2" d="M 863.5,601.5 C 865.04,603.838 865.706,606.505 865.5,609.5C 865.334,613.846 865.501,618.179 866,622.5C 866.779,619.903 867.279,619.903 867.5,622.5C 867.167,623.5 866.5,624.167 865.5,624.5C 864.833,624.5 864.167,624.5 863.5,624.5C 864.632,616.892 864.632,609.225 863.5,601.5 Z"/></g>
<g><path style="opacity:1" fill="#181b25" d="M 543.5,587.5 C 543.5,587.833 543.5,588.167 543.5,588.5C 544.383,590.91 545.55,593.243 547,595.5C 550.28,606.14 553.613,616.807 557,627.5C 559.009,630.185 560.509,633.185 561.5,636.5C 560.033,640.032 559.366,643.698 559.5,647.5C 558.928,648.973 558.095,650.307 557,651.5C 553.828,661.527 550.662,671.527 547.5,681.5C 557.681,681.173 567.681,681.506 577.5,682.5C 577.5,682.833 577.5,683.167 577.5,683.5C 566.813,683.832 556.146,683.499 545.5,682.5C 544.947,680.273 544.947,677.939 545.5,675.5C 549.538,663.219 553.871,651.052 558.5,639C 552.3,622.768 545.966,606.602 539.5,590.5C 540.926,589.659 542.26,588.659 543.5,587.5 Z"/></g>
<g><path style="opacity:1" fill="#2c3977" d="M 976.5,605.5 C 976.833,605.5 977.167,605.5 977.5,605.5C 978.921,608.009 980.588,610.343 982.5,612.5C 982.96,615.977 983.293,619.477 983.5,623C 983.02,628.604 982.02,634.104 980.5,639.5C 980.279,642.067 979.612,644.401 978.5,646.5C 977.652,645.375 976.652,645.375 975.5,646.5C 975.5,646.167 975.5,645.833 975.5,645.5C 963.007,644.669 950.34,644.169 937.5,644C 940.409,640.923 943.742,638.423 947.5,636.5C 951.082,632.326 954.415,627.992 957.5,623.5C 963.833,617.5 970.167,611.5 976.5,605.5 Z"/></g>
<g><path style="opacity:1" fill="#9fa3b6" d="M 1144.5,623.5 C 1158.34,622.174 1172.34,622.174 1186.5,623.5C 1186.38,624.107 1186.04,624.44 1185.5,624.5C 1172.01,623.504 1158.34,623.171 1144.5,623.5 Z"/></g>
<g><path style="opacity:1" fill="#23252e" d="M 1075.5,588.5 C 1072.94,593.722 1071.44,599.389 1071,605.5C 1069.44,610.908 1066.77,615.575 1063,619.5C 1061.68,624.813 1060.35,630.146 1059,635.5C 1058.26,637.319 1057.09,638.652 1055.5,639.5C 1055.37,637.708 1055.7,636.042 1056.5,634.5C 1061.36,619.755 1066.53,605.088 1072,590.5C 1072.71,589.027 1073.88,588.36 1075.5,588.5 Z"/></g>
<g><path style="opacity:1" fill="#1c2346" d="M 655.5,587.5 C 655.5,587.833 655.5,588.167 655.5,588.5C 654.992,591.852 653.658,594.852 651.5,597.5C 650.051,602.443 648.884,607.443 648,612.5C 644.082,616.678 642.082,621.678 642,627.5C 641.292,628.381 640.458,629.047 639.5,629.5C 640.057,623.662 641.89,618.328 645,613.5C 646.948,608.658 648.281,603.658 649,598.5C 651.038,595.757 652.538,592.757 653.5,589.5C 653.5,589.167 653.5,588.833 653.5,588.5C 653.842,587.662 654.508,587.328 655.5,587.5 Z"/></g>
<g><path style="opacity:1" fill="#525983" d="M 751.5,613.5 C 751.5,615.167 751.5,616.833 751.5,618.5C 750.299,624.544 748.299,630.211 745.5,635.5C 745.062,634.494 744.396,634.494 743.5,635.5C 747.097,628.407 749.763,621.074 751.5,613.5 Z"/></g>
<g><path style="opacity:1" fill="#2f3b78" d="M 867.5,622.5 C 881.837,622.333 896.171,622.5 910.5,623C 895.943,636.396 881.276,649.563 866.5,662.5C 860.451,653.707 858.951,644.04 862,633.5C 863.105,630.461 864.272,627.461 865.5,624.5C 866.5,624.167 867.167,623.5 867.5,622.5 Z"/></g>
<g><path style="opacity:1" fill="#666c92" d="M 982.5,612.5 C 984.715,616.58 986.049,620.913 986.5,625.5C 984.458,630.24 982.458,634.907 980.5,639.5C 982.02,634.104 983.02,628.604 983.5,623C 983.293,619.477 982.96,615.977 982.5,612.5 Z"/></g>
<g><path style="opacity:1" fill="#384275" d="M 787.5,619.5 C 785.993,624.5 784.826,629.5 784,634.5C 787.534,630.631 791.367,627.131 795.5,624C 805.828,623.5 816.161,623.334 826.5,623.5C 826.833,623.5 827.167,623.5 827.5,623.5C 827.389,624.117 827.056,624.617 826.5,625C 817.074,624.874 807.908,625.708 799,627.5C 797.644,626.62 796.144,626.286 794.5,626.5C 794.626,629.468 796.126,631.468 799,632.5C 799.49,633.793 799.657,635.127 799.5,636.5C 796.949,635.484 794.782,633.817 793,631.5C 792.5,632 792,632.5 791.5,633C 792.973,635.608 792.473,637.775 790,639.5C 789.5,639.167 789,638.833 788.5,638.5C 789.645,637.109 789.645,635.776 788.5,634.5C 785.688,636.477 783.022,638.644 780.5,641C 779.365,641.749 778.365,641.583 777.5,640.5C 779.15,636.692 780.317,632.692 781,628.5C 781.667,629.833 782.333,629.833 783,628.5C 783.765,625.017 785.265,622.017 787.5,619.5 Z"/></g>
<g><path style="opacity:1" fill="#272c4d" d="M 957.5,623.5 C 954.415,627.992 951.082,632.326 947.5,636.5C 943.742,638.423 940.409,640.923 937.5,644C 950.34,644.169 963.007,644.669 975.5,645.5C 962.254,645.823 949.087,645.489 936,644.5C 935.184,645.823 934.017,646.489 932.5,646.5C 940.507,638.493 948.841,630.827 957.5,623.5 Z"/></g>
<g><path style="opacity:1" fill="#656b95" d="M 1020.5,632.5 C 1020.5,633.167 1020.5,633.833 1020.5,634.5C 1020.5,635.167 1020.5,635.833 1020.5,636.5C 1016.94,642.479 1013.94,648.813 1011.5,655.5C 1012.15,651.038 1013.32,646.705 1015,642.5C 1016.96,638.667 1018.63,634.667 1020,630.5C 1020.46,631.094 1020.63,631.761 1020.5,632.5 Z"/></g>
<g><path style="opacity:1" fill="#41466c" d="M 398.5,623.5 C 396.86,627.729 395.693,632.062 395,636.5C 399.094,631.898 403.594,627.898 408.5,624.5C 405.018,628.126 402.018,632.126 399.5,636.5C 396.99,637.783 394.323,638.783 391.5,639.5C 392.694,634.767 394.194,630.101 396,625.5C 396.417,624.244 397.25,623.577 398.5,623.5 Z"/></g>
<g><path style="opacity:1" fill="#575f8b" d="M 598.5,634.5 C 595.866,639.116 593.533,643.783 591.5,648.5C 591.808,644.405 592.641,640.405 594,636.5C 595.33,635.418 596.83,634.751 598.5,634.5 Z"/></g>
<g><path style="opacity:1" fill="#717597" d="M 1075.5,587.5 C 1086.33,586.341 1097.33,586.174 1108.5,587C 1109.56,588.188 1110.9,588.688 1112.5,588.5C 1112.5,588.833 1112.5,589.167 1112.5,589.5C 1111.5,589.5 1110.5,589.5 1109.5,589.5C 1101.77,612.446 1093.44,635.113 1084.5,657.5C 1085.88,649.85 1088.38,642.517 1092,635.5C 1093.09,628.735 1095.42,622.402 1099,616.5C 1102.15,607.219 1104.98,597.886 1107.5,588.5C 1096.78,588.787 1086.12,588.454 1075.5,587.5 Z"/></g>
<g><path style="opacity:1" fill="#20232d" d="M 1002.5,587.5 C 1002.83,587.5 1003.17,587.5 1003.5,587.5C 1002.38,592.982 1000.22,597.982 997,602.5C 996.506,604.134 996.34,605.801 996.5,607.5C 995.5,607.5 994.5,607.5 993.5,607.5C 991.231,616.02 989.065,624.687 987,633.5C 982.04,643.419 978.207,653.752 975.5,664.5C 973.589,664.574 972.422,665.574 972,667.5C 971.854,671.555 971.02,675.388 969.5,679C 969.585,680.107 969.919,681.107 970.5,682C 980.161,682.5 989.828,682.666 999.5,682.5C 988.549,684.478 977.216,685.144 965.5,684.5C 967.033,676.901 969.366,669.568 972.5,662.5C 974.303,657.089 976.303,651.756 978.5,646.5C 979.612,644.401 980.279,642.067 980.5,639.5C 982.458,634.907 984.458,630.24 986.5,625.5C 990.367,613.425 994.534,601.425 999,589.5C 1000.3,588.915 1001.47,588.249 1002.5,587.5 Z"/></g>
<g><path style="opacity:1" fill="#272a44" d="M 427.5,645.5 C 426.426,646.885 425.093,648.051 423.5,649C 412.172,649.5 400.838,649.667 389.5,649.5C 389.511,647.983 390.177,646.816 391.5,646C 403.495,645.5 415.495,645.333 427.5,645.5 Z"/></g>
<g><path style="opacity:1" fill="#222636" d="M 845.5,641.5 C 838.05,645.309 830.05,647.309 821.5,647.5C 823.831,645.915 826.497,644.749 829.5,644C 834.951,643.637 840.284,642.804 845.5,641.5 Z"/></g>
<g><path style="opacity:1" fill="#13161c" d="M 975.5,645.5 C 975.5,645.833 975.5,646.167 975.5,646.5C 961.167,647.833 946.833,647.833 932.5,646.5C 934.017,646.489 935.184,645.823 936,644.5C 949.087,645.489 962.254,645.823 975.5,645.5 Z"/></g>
<g><path style="opacity:1" fill="#20232f" d="M 1160.5,647.5 C 1159.71,647.783 1159.04,648.283 1158.5,649C 1147.51,649.5 1136.51,649.667 1125.5,649.5C 1125.5,649.167 1125.5,648.833 1125.5,648.5C 1125.92,647.778 1126.58,647.278 1127.5,647C 1138.67,646.174 1149.67,646.341 1160.5,647.5 Z"/></g>
<g><path style="opacity:1" fill="#a5aac7" d="M 971.5,654.5 C 953.864,652.513 935.864,651.847 917.5,652.5C 916.833,653.167 916.167,653.833 915.5,654.5C 914.508,654.328 913.842,654.662 913.5,655.5C 912.957,655.44 912.624,655.107 912.5,654.5C 913.5,653.833 914.5,653.167 915.5,652.5C 934.833,651.167 954.167,651.167 973.5,652.5C 973.145,653.522 972.478,654.189 971.5,654.5 Z"/></g>
<g><path style="opacity:1" fill="#6a7197" d="M 1125.5,648.5 C 1125.5,648.833 1125.5,649.167 1125.5,649.5C 1124.26,651.649 1123.26,653.982 1122.5,656.5C 1121.66,656.842 1121.33,657.508 1121.5,658.5C 1120.9,658.265 1120.57,657.765 1120.5,657C 1121.99,654.361 1122.66,651.528 1122.5,648.5C 1123.5,648.5 1124.5,648.5 1125.5,648.5 Z"/></g>
<g><path style="opacity:1" fill="#2e3a77" d="M 902.5,644.5 C 906.2,656.821 911.2,668.487 917.5,679.5C 917.5,680.833 916.833,681.5 915.5,681.5C 908.8,681.83 902.134,681.497 895.5,680.5C 890.306,678.645 884.972,677.312 879.5,676.5C 879.719,675.325 879.386,674.325 878.5,673.5C 876.139,672.289 874.139,670.789 872.5,669C 872.862,667.775 873.362,666.609 874,665.5C 878.052,662.915 881.218,659.582 883.5,655.5C 888.638,650.532 893.971,645.699 899.5,641C 901.934,640.667 902.934,641.834 902.5,644.5 Z"/></g>
<g><path style="opacity:1" fill="#2f3b78" d="M 917.5,652.5 C 935.864,651.847 953.864,652.513 971.5,654.5C 968.973,656.605 966.64,658.939 964.5,661.5C 959.415,665.256 954.082,668.589 948.5,671.5C 941.216,672.825 934.549,675.492 928.5,679.5C 928.167,679.5 927.833,679.5 927.5,679.5C 927.5,678.833 927.5,678.167 927.5,677.5C 924.718,669.016 921.385,660.682 917.5,652.5 Z"/></g>
<g><path style="opacity:1" fill="#191b1f" d="M 788.5,655.5 C 790.952,660.291 794.619,663.624 799.5,665.5C 801.883,666.885 803.55,668.885 804.5,671.5C 806.841,675.682 810.175,679.182 814.5,682C 826.162,682.5 837.829,682.667 849.5,682.5C 837.345,683.495 825.011,683.829 812.5,683.5C 800.833,672.833 789.167,662.167 777.5,651.5C 777.5,650.167 777.5,648.833 777.5,647.5C 782.391,648.449 786.058,651.116 788.5,655.5 Z"/></g>
<g><path style="opacity:1" fill="#616892" d="M 483.5,587.5 C 493.833,587.5 504.167,587.5 514.5,587.5C 514.5,588.833 514.5,590.167 514.5,591.5C 506.667,613.198 499,634.865 491.5,656.5C 490.957,656.56 490.624,656.893 490.5,657.5C 509.518,657.84 528.185,658.84 546.5,660.5C 546.167,661.5 545.5,662.167 544.5,662.5C 544.5,661.5 544.5,660.5 544.5,659.5C 526.167,659.5 507.833,659.5 489.5,659.5C 496.75,635.583 504.75,611.917 513.5,588.5C 503.319,588.827 493.319,588.494 483.5,587.5 Z"/></g>
<g><path style="opacity:1" fill="#1b2142" d="M 788.5,655.5 C 793.257,657.699 796.924,661.033 799.5,665.5C 794.619,663.624 790.952,660.291 788.5,655.5 Z"/></g>
<g><path style="opacity:1" fill="#b9bed6" d="M 491.5,656.5 C 509.993,657.497 528.659,657.83 547.5,657.5C 547.737,658.791 547.404,659.791 546.5,660.5C 528.185,658.84 509.518,657.84 490.5,657.5C 490.624,656.893 490.957,656.56 491.5,656.5 Z"/></g>
<g><path style="opacity:1" fill="#b9bdd6" d="M 1122.5,656.5 C 1144.99,657.497 1167.66,657.831 1190.5,657.5C 1190.74,658.791 1190.4,659.791 1189.5,660.5C 1167.19,658.51 1144.52,657.844 1121.5,658.5C 1121.33,657.508 1121.66,656.842 1122.5,656.5 Z"/></g>
<g><path style="opacity:1" fill="#50588a" d="M 387.5,652.5 C 385.072,662.245 381.739,671.578 377.5,680.5C 378.917,673.587 379.75,666.587 380,659.5C 381.049,660.517 382.216,660.684 383.5,660C 384.466,657.231 385.799,654.731 387.5,652.5 Z"/></g>
<g><path style="opacity:1" fill="#181b27" d="M 863.5,624.5 C 864.167,624.5 864.833,624.5 865.5,624.5C 864.272,627.461 863.105,630.461 862,633.5C 858.951,644.04 860.451,653.707 866.5,662.5C 865.306,663.272 864.306,664.272 863.5,665.5C 862.504,665.586 861.671,665.252 861,664.5C 856.049,654.84 855.216,644.84 858.5,634.5C 860.158,631.211 861.825,627.877 863.5,624.5 Z"/></g>
<g><path style="opacity:1" fill="#434b80" d="M 1121.5,658.5 C 1144.52,657.844 1167.19,658.51 1189.5,660.5C 1188.4,662.389 1187.06,664.055 1185.5,665.5C 1185.29,663.856 1185.62,662.356 1186.5,661C 1165.5,660.667 1144.5,660.333 1123.5,660C 1122.58,659.722 1121.92,659.222 1121.5,658.5 Z"/></g>
<g><path style="opacity:1" fill="#1e222d" d="M 653.5,589.5 C 652.538,592.757 651.038,595.757 649,598.5C 648.281,603.658 646.948,608.658 645,613.5C 641.89,618.328 640.057,623.662 639.5,629.5C 637.247,635.618 635.414,641.951 634,648.5C 627.876,658.643 624.043,669.643 622.5,681.5C 642.682,681.779 662.849,681.446 683,680.5C 692.343,677.905 701.509,674.905 710.5,671.5C 703.66,676.583 695.994,680.083 687.5,682C 682.552,683.05 677.552,683.55 672.5,683.5C 653.992,683.83 635.659,683.497 617.5,682.5C 628.505,651.798 639.505,621.132 650.5,590.5C 651.391,589.89 652.391,589.557 653.5,589.5 Z"/></g>
<g><path style="opacity:1" fill="#1a1d2c" d="M 481.5,589.5 C 476.772,605.683 471.439,621.683 465.5,637.5C 461.902,644.896 459.069,652.562 457,660.5C 455.615,661.551 454.615,662.884 454,664.5C 452.185,670.106 450.685,675.773 449.5,681.5C 475.005,681.169 500.339,681.502 525.5,682.5C 524.833,682.5 524.5,682.833 524.5,683.5C 497.812,684.158 471.479,683.491 445.5,681.5C 455.773,651.681 466.439,622.014 477.5,592.5C 478.404,591.791 478.737,590.791 478.5,589.5C 479.5,589.5 480.5,589.5 481.5,589.5 Z"/></g>
<g><path style="opacity:1" fill="#161b36" d="M 917.5,652.5 C 921.385,660.682 924.718,669.016 927.5,677.5C 926.5,677.5 925.5,677.5 924.5,677.5C 924.603,674.781 924.269,672.115 923.5,669.5C 920.804,664.483 918.138,659.483 915.5,654.5C 916.167,653.833 916.833,653.167 917.5,652.5 Z"/></g>
<g><path style="opacity:1" fill="#434d82" d="M 591.5,648.5 C 588.02,660.103 584.02,671.437 579.5,682.5C 579.942,678.846 580.276,675.179 580.5,671.5C 579.325,671.719 578.325,671.386 577.5,670.5C 579.024,666.793 580.524,663.127 582,659.5C 583.044,660.623 583.71,661.956 584,663.5C 585.617,662.464 585.784,661.297 584.5,660C 586.998,656.154 589.331,652.32 591.5,648.5 Z"/></g>
<g><path style="opacity:1" fill="#979dbd" d="M 902.5,644.5 C 905.755,650.008 908.755,655.675 911.5,661.5C 913.714,667.476 915.714,673.476 917.5,679.5C 911.2,668.487 906.2,656.821 902.5,644.5 Z"/></g>
<g><path style="opacity:1" fill="#6a719a" d="M 774.5,657.5 C 772.899,662.926 771.066,668.26 769,673.5C 767.614,676.972 765.78,679.972 763.5,682.5C 763.833,681.833 764.167,681.167 764.5,680.5C 766.283,675.984 767.783,671.317 769,666.5C 770.566,663.248 772.399,660.248 774.5,657.5 Z"/></g>
<g><path style="opacity:1" fill="#1a1b1b" d="M 915.5,654.5 C 918.138,659.483 920.804,664.483 923.5,669.5C 924.269,672.115 924.603,674.781 924.5,677.5C 925.5,677.5 926.5,677.5 927.5,677.5C 927.5,678.167 927.5,678.833 927.5,679.5C 926.458,680.791 925.292,680.791 924,679.5C 921.197,674.23 918.697,668.897 916.5,663.5C 915.448,660.807 914.448,658.14 913.5,655.5C 913.842,654.662 914.508,654.328 915.5,654.5 Z"/></g>
<g><path style="opacity:1" fill="#283266" d="M 1074.5,680.5 C 1074.5,681.167 1074.17,681.5 1073.5,681.5C 1059.14,681.764 1044.8,681.431 1030.5,680.5C 1028.76,664.683 1026.1,649.016 1022.5,633.5C 1021.82,633.863 1021.15,634.196 1020.5,634.5C 1020.5,633.833 1020.5,633.167 1020.5,632.5C 1021.16,631.282 1021.83,629.949 1022.5,628.5C 1023.91,629.624 1025.41,630.624 1027,631.5C 1027.33,636.5 1027.67,641.5 1028,646.5C 1029,648.167 1030,649.833 1031,651.5C 1032.12,646.728 1032.96,641.895 1033.5,637C 1034.17,633.667 1034.83,633.667 1035.5,637C 1034.11,642.411 1033.28,647.911 1033,653.5C 1031.69,654.912 1030.86,656.579 1030.5,658.5C 1032.13,663.386 1033.13,668.386 1033.5,673.5C 1035.5,673.5 1037.5,673.5 1039.5,673.5C 1039.5,674.833 1039.5,676.167 1039.5,677.5C 1037.71,677.215 1036.05,677.548 1034.5,678.5C 1034.71,679.086 1035.04,679.586 1035.5,680C 1048.5,680.5 1061.5,680.667 1074.5,680.5 Z"/></g>
<g><path style="opacity:1" fill="#8b91b2" d="M 822.5,649.5 C 833.634,659.801 844.3,670.634 854.5,682C 853.552,682.483 852.552,682.649 851.5,682.5C 851.672,681.508 851.338,680.842 850.5,680.5C 842.26,670.425 833.093,661.092 823,652.5C 822.517,651.552 822.351,650.552 822.5,649.5 Z"/></g>
<g><path style="opacity:1" fill="#21242e" d="M 377.5,587.5 C 377.833,587.5 378.167,587.5 378.5,587.5C 378.5,587.833 378.5,588.167 378.5,588.5C 371.711,602.504 366.378,617.004 362.5,632C 359.275,635.439 357.775,639.606 358,644.5C 353.434,654.393 349.267,664.393 345.5,674.5C 345.003,676.818 344.67,679.152 344.5,681.5C 354.681,681.173 364.681,681.506 374.5,682.5C 369.04,683.829 363.207,684.496 357,684.5C 351.167,684.167 345.333,683.833 339.5,683.5C 351.298,652.271 362.798,620.937 374,589.5C 375.302,588.915 376.469,588.249 377.5,587.5 Z"/></g>
<g><path style="opacity:1" fill="#1e202b" d="M 883.5,655.5 C 881.218,659.582 878.052,662.915 874,665.5C 873.362,666.609 872.862,667.775 872.5,669C 874.139,670.789 876.139,672.289 878.5,673.5C 879.386,674.325 879.719,675.325 879.5,676.5C 884.972,677.312 890.306,678.645 895.5,680.5C 902.134,681.497 908.8,681.83 915.5,681.5C 898.572,686.055 882.905,683.222 868.5,673C 867.833,672.333 867.167,671.667 866.5,671C 867.71,669.961 868.71,668.794 869.5,667.5C 874.167,663.5 878.833,659.5 883.5,655.5 Z"/></g>
<g><path style="opacity:1" fill="#2f3550" d="M 948.5,671.5 C 942.428,675.366 935.761,678.033 928.5,679.5C 934.549,675.492 941.216,672.825 948.5,671.5 Z"/></g>
<g><path style="opacity:1" fill="#1c1e24" d="M 1073.5,681.5 C 1073.5,681.833 1073.5,682.167 1073.5,682.5C 1073.39,683.117 1073.06,683.617 1072.5,684C 1057.84,684.5 1043.17,684.667 1028.5,684.5C 1025.96,668.469 1023.29,652.469 1020.5,636.5C 1020.5,635.833 1020.5,635.167 1020.5,634.5C 1021.15,634.196 1021.82,633.863 1022.5,633.5C 1026.1,649.016 1028.76,664.683 1030.5,680.5C 1044.8,681.431 1059.14,681.764 1073.5,681.5 Z"/></g>
<g><path style="opacity:1" fill="#676c8c" d="M 1084.5,657.5 C 1082.24,665.961 1079.57,674.294 1076.5,682.5C 1076.17,682.5 1075.83,682.5 1075.5,682.5C 1074.83,682.5 1074.17,682.5 1073.5,682.5C 1073.5,682.167 1073.5,681.833 1073.5,681.5C 1074.17,681.5 1074.5,681.167 1074.5,680.5C 1075.33,677.173 1076.83,674.173 1079,671.5C 1079.38,667.347 1080.38,663.347 1082,659.5C 1082.71,658.619 1083.54,657.953 1084.5,657.5 Z"/></g>
<g><path style="opacity:1" fill="#1f264d" d="M 735.5,672.5 C 734.908,675.127 734.575,677.794 734.5,680.5C 744.5,680.5 754.5,680.5 764.5,680.5C 764.167,681.167 763.833,681.833 763.5,682.5C 763.167,682.5 762.833,682.5 762.5,682.5C 752.828,682.666 743.161,682.5 733.5,682C 731.867,678.285 732.534,675.118 735.5,672.5 Z"/></g>
<g><path style="opacity:1" fill="#1e254a" d="M 975.5,664.5 C 973.949,669.697 972.616,675.03 971.5,680.5C 981.506,680.334 991.506,680.5 1001.5,681C 1000.94,681.383 1000.61,681.883 1000.5,682.5C 1000.17,682.5 999.833,682.5 999.5,682.5C 989.828,682.666 980.161,682.5 970.5,682C 969.919,681.107 969.585,680.107 969.5,679C 971.02,675.388 971.854,671.555 972,667.5C 972.422,665.574 973.589,664.574 975.5,664.5 Z"/></g>
<g><path style="opacity:1" fill="#171c36" d="M 804.5,671.5 C 808.993,673.31 812.659,676.31 815.5,680.5C 827.327,681.824 838.993,681.824 850.5,680.5C 851.338,680.842 851.672,681.508 851.5,682.5C 851.167,682.5 850.833,682.5 850.5,682.5C 850.167,682.5 849.833,682.5 849.5,682.5C 837.829,682.667 826.162,682.5 814.5,682C 810.175,679.182 806.841,675.682 804.5,671.5 Z"/></g>
<g><path style="opacity:1" fill="#151927" d="M 1112.5,589.5 C 1111.06,592.611 1110.22,595.944 1110,599.5C 1106.01,604.812 1103.68,610.812 1103,617.5C 1098.55,625.634 1095.55,634.301 1094,643.5C 1089.49,654.445 1085.15,665.445 1081,676.5C 1080.51,678.134 1080.34,679.801 1080.5,681.5C 1109.67,681.169 1138.67,681.502 1167.5,682.5C 1167.5,683.167 1167.17,683.5 1166.5,683.5C 1136.33,683.831 1106.33,683.498 1076.5,682.5C 1079.57,674.294 1082.24,665.961 1084.5,657.5C 1093.44,635.113 1101.77,612.446 1109.5,589.5C 1110.5,589.5 1111.5,589.5 1112.5,589.5 Z"/></g>
<g><path style="opacity:1" fill="#414544" d="M 445.5,681.5 C 471.479,683.491 497.812,684.158 524.5,683.5C 498.005,684.498 471.339,684.831 444.5,684.5C 444.263,683.209 444.596,682.209 445.5,681.5 Z"/></g>
<g><path style="opacity:1" fill="#414443" d="M 545.5,675.5 C 544.947,677.939 544.947,680.273 545.5,682.5C 556.146,683.499 566.813,683.832 577.5,683.5C 566.012,684.495 554.345,684.828 542.5,684.5C 542.928,681.215 543.928,678.215 545.5,675.5 Z"/></g>
<g><path style="opacity:1" fill="#434746" d="M 617.5,682.5 C 635.659,683.497 653.992,683.83 672.5,683.5C 653.996,684.828 635.329,684.828 616.5,683.5C 616.624,682.893 616.957,682.56 617.5,682.5 Z"/></g>
<g><path style="opacity:1" fill="#414444" d="M 849.5,682.5 C 849.833,682.5 850.167,682.5 850.5,682.5C 850.611,683.117 850.944,683.617 851.5,684C 838.327,684.827 825.327,684.66 812.5,683.5C 825.011,683.829 837.345,683.495 849.5,682.5 Z"/></g>
<g><path style="opacity:1" fill="#404443" d="M 1075.5,682.5 C 1075.83,682.5 1076.17,682.5 1076.5,682.5C 1106.33,683.498 1136.33,683.831 1166.5,683.5C 1151.5,684.167 1136.34,684.5 1121,684.5C 1105.48,684.499 1090.32,683.833 1075.5,682.5 Z"/></g>
<g><path style="opacity:1" fill="#b2fed0" d="M 339.5,702.5 C 430.999,701.334 522.666,701.168 614.5,702C 615.456,705.394 615.789,708.894 615.5,712.5C 523.332,712.833 431.332,712.499 339.5,711.5C 431.167,711.5 522.833,711.5 614.5,711.5C 614.806,708.615 614.473,705.948 613.5,703.5C 522.335,702.501 431.002,702.167 339.5,702.5 Z"/></g>
<g><path style="opacity:1" fill="#f8f1f1" d="M 1215.5,702.5 C 1115.17,702.5 1014.83,702.5 914.5,702.5C 914.19,705.713 914.523,708.713 915.5,711.5C 1015.5,711.5 1115.5,711.5 1215.5,711.5C 1215.5,711.833 1215.5,712.167 1215.5,712.5C 1114.5,712.5 1013.5,712.5 912.5,712.5C 814.499,712.667 716.499,712.5 618.5,712C 622.062,708.756 622.062,705.59 618.5,702.5C 619.333,702.167 620.167,701.833 621,701.5C 717.816,702.661 814.649,702.827 911.5,702C 912.667,701.5 913.5,700.667 914,699.5C 1014.77,699.832 1115.27,700.832 1215.5,702.5 Z"/></g>
<g><path style="opacity:1" fill="#d54042" d="M 1215.5,702.5 C 1215.5,702.833 1215.5,703.167 1215.5,703.5C 1115.5,703.5 1015.5,703.5 915.5,703.5C 915.5,704.5 915.5,705.5 915.5,706.5C 915.5,708.167 915.5,709.833 915.5,711.5C 914.523,708.713 914.19,705.713 914.5,702.5C 1014.83,702.5 1115.17,702.5 1215.5,702.5 Z"/></g>
<g><path style="opacity:1" fill="#fc0100" d="M 1215.5,703.5 C 1215.5,704.5 1215.5,705.5 1215.5,706.5C 824.833,707.167 824.833,707.833 1215.5,708.5C 1215.5,709.167 1215.5,709.833 1215.5,710.5C 1115.83,710.5 1016.17,710.5 916.5,710.5C 916.768,708.901 916.434,707.568 915.5,706.5C 915.5,705.5 915.5,704.5 915.5,703.5C 1015.5,703.5 1115.5,703.5 1215.5,703.5 Z"/></g>
<g><path style="opacity:1" fill="#f10605" d="M 1215.5,706.5 C 1215.5,707.167 1215.5,707.833 1215.5,708.5C 824.833,707.833 824.833,707.167 1215.5,706.5 Z"/></g>
<g><path style="opacity:1" fill="#39ec72" d="M 339.5,702.5 C 431.002,702.167 522.335,702.501 613.5,703.5C 614.473,705.948 614.806,708.615 614.5,711.5C 522.833,711.5 431.167,711.5 339.5,711.5C 339.5,708.5 339.5,705.5 339.5,702.5 Z"/></g>
<g><path style="opacity:1" fill="#02fd53" d="M 613.5,703.5 C 613.5,705.833 613.5,708.167 613.5,710.5C 522.5,710.5 431.5,710.5 340.5,710.5C 340.5,708.167 340.5,705.833 340.5,703.5C 431.5,703.5 522.5,703.5 613.5,703.5 Z"/></g>
<g><path style="opacity:1" fill="#db1616" d="M 915.5,706.5 C 916.434,707.568 916.768,708.901 916.5,710.5C 1016.17,710.5 1115.83,710.5 1215.5,710.5C 1215.5,710.833 1215.5,711.167 1215.5,711.5C 1115.5,711.5 1015.5,711.5 915.5,711.5C 915.5,709.833 915.5,708.167 915.5,706.5 Z"/></g>
<g><path style="opacity:1" fill="#ecfffe" d="M 912.5,712.5 C 1013.5,712.5 1114.5,712.5 1215.5,712.5C 1165.5,713.833 1115.17,714.5 1064.5,714.5C 1014.17,714.333 963.833,714.167 913.5,714C 912.944,713.617 912.611,713.117 912.5,712.5 Z"/></g>
</svg>
